<?xml version="1.0" encoding="UTF-8"?>
<svg width="800" height="600" viewBox="0 0 800 600" fill="none" xmlns="http://www.w3.org/2000/svg" role="img" aria-label="illustration">
  <defs>
    <linearGradient id="g1" x1="0" x2="1">
      <stop offset="0" stop-color="#66B8FF"/>
      <stop offset="1" stop-color="#48EFB3"/>
    </linearGradient>
    <filter id="f1" x="-20%" y="-20%" width="140%" height="140%">
      <feGaussianBlur stdDeviation="18" result="b" />
      <feBlend in="SourceGraphic" in2="b" mode="normal"/>
    </filter>
  </defs>

  <!-- soft gradient blob -->
  <g filter="url(#f1)">
    <path d="M600 120C680 200 740 320 660 420C580 520 420 520 320 460C220 400 140 240 240 160C340 80 520 40 600 120Z" fill="url(#g1)" opacity="0.95" />
  </g>

  <!-- mock UI cards -->
  <rect x="120" y="160" width="340" height="220" rx="14" fill="#06111A" opacity="0.08" />
  <rect x="140" y="180" width="300" height="40" rx="8" fill="white" opacity="0.06" />
  <rect x="140" y="230" width="220" height="18" rx="6" fill="white" opacity="0.04" />
  <rect x="140" y="260" width="260" height="120" rx="10" fill="white" opacity="0.03" />

  <!-- small circular badges -->
  <circle cx="560" cy="440" r="22" fill="#fff" opacity="0.06" />
  <circle cx="520" cy="380" r="16" fill="#fff" opacity="0.08" />

  <!-- light stroke highlights -->
  <path d="M600 120C680 200 740 320 660 420" stroke="white" stroke-opacity="0.04" stroke-width="2" />
</svg>
